<?xml version="1.0" encoding="UTF-8" standalone="no"?>
<!DOCTYPE svg PUBLIC "-//W3C//DTD SVG 1.1//EN" "http://www.w3.org/Graphics/SVG/1.1/DTD/svg11.dtd">
<svg
   version="1.1"
   id="svg2"
   width="240"
   height="257.18668"
   viewBox="0 0 240 257.18668"
   sodipodi:docname="TM_Logo_Secondary_2c_reverse.eps"
   xmlns:inkscape="http://www.inkscape.org/namespaces/inkscape"
   xmlns:sodipodi="http://sodipodi.sourceforge.net/DTD/sodipodi-0.dtd"
   xmlns="http://www.w3.org/2000/svg"
   xmlns:svg="http://www.w3.org/2000/svg">
  <defs
     id="defs6" />
  <sodipodi:namedview
     id="namedview4"
     pagecolor="#ffffff"
     bordercolor="#000000"
     borderopacity="0.25"
     inkscape:showpageshadow="2"
     inkscape:pageopacity="0.0"
     inkscape:pagecheckerboard="0"
     inkscape:deskcolor="#d1d1d1" />
  <g
     id="g8"
     inkscape:groupmode="layer"
     inkscape:label="ink_ext_XXXXXX"
     transform="matrix(1.3333333,0,0,-1.3333333,0,257.18667)">
    <g
       id="g10"
       transform="scale(0.1)">
      <path
         d="m 1665.36,56.8516 -14.55,1.5703 v -0.6328 l 11.72,-4.5 27.33,-15.5977 v -4.6016 l -27.43,-16.4414 -11.62,-4.6093 v -0.5196 l 14.44,2.0899 h 38.11 V 0 h -73.28 v 13.0898 l 33.5,19.5821 8.38,3.4492 v 0.418 l -8.59,3.1406 -33.29,18.5312 v 12.9805 h 73.28 V 56.8516 h -38"
         style="fill:#ffffff;fill-opacity:1;fill-rule:nonzero;stroke:none"
         id="path12" />
      <path
         d="m 1630.08,93.4414 v 14.3396 h 73.28 V 93.4414 h -73.28"
         style="fill:#ffffff;fill-opacity:1;fill-rule:nonzero;stroke:none"
         id="path14" />
      <path
         d="m 1700.36,178.43 c 1.59,-2.231 2.74,-5.078 3.43,-8.532 0.69,-3.449 1.04,-7 1.04,-10.628 0,-4.391 -0.68,-8.559 -2.04,-12.508 -1.36,-3.942 -3.56,-7.41 -6.6,-10.41 -3.04,-3 -6.98,-5.391 -11.83,-7.172 -4.85,-1.782 -10.73,-2.668 -17.64,-2.668 -7.19,0 -13.2,0.988 -18.06,2.976 -4.85,1.992 -8.75,4.571 -11.72,7.75 -2.96,3.172 -5.09,6.711 -6.39,10.621 -1.29,3.911 -1.93,7.821 -1.93,11.731 0,4.191 0.28,7.73 0.83,10.621 0.56,2.898 1.23,5.289 2,7.168 l 12.14,-2.82 c -0.77,-1.61 -1.33,-3.508 -1.68,-5.707 -0.35,-2.204 -0.52,-4.864 -0.52,-8.012 0,-5.789 2.06,-10.449 6.19,-13.969 4.12,-3.531 10.52,-5.289 19.2,-5.289 3.77,0 7.22,0.418 10.33,1.258 3.11,0.84 5.77,2.109 7.97,3.82 2.2,1.711 3.92,3.84 5.14,6.391 1.22,2.539 1.84,5.488 1.84,8.84 0,3.14 -0.32,5.789 -0.95,7.961 -0.62,2.16 -1.43,4.039 -2.4,5.648 l 11.65,2.93"
         style="fill:#ffffff;fill-opacity:1;fill-rule:nonzero;stroke:none"
         id="path16" />
      <path
         d="m 1642.45,219.59 c 0,-1.461 0.03,-2.91 0.1,-4.34 0.07,-1.441 0.21,-2.531 0.42,-3.301 h 21.25 v 6.071 c 0,3.98 -0.9,7.152 -2.72,9.531 -1.81,2.371 -4.81,3.558 -9,3.558 -3.14,0 -5.6,-0.98 -7.38,-2.929 -1.78,-1.961 -2.67,-4.821 -2.67,-8.59 z m -11,-21.981 c -0.27,1.602 -0.53,3.332 -0.78,5.18 -0.24,1.852 -0.44,3.691 -0.58,5.551 -0.13,1.84 -0.24,3.64 -0.31,5.39 -0.07,1.739 -0.11,3.348 -0.11,4.809 0,3.422 0.32,6.793 0.95,10.102 0.63,3.32 1.71,6.289 3.24,8.898 1.54,2.621 3.65,4.723 6.34,6.289 2.68,1.563 6.05,2.352 10.1,2.352 6,0 10.89,-1.399 14.66,-4.192 3.76,-2.789 6.38,-6.519 7.85,-11.199 l 3.24,5.133 27.95,16.75 v -16.543 l -28.68,-16.649 -1.36,-7.531 H 1704 v -14.34 h -72.55"
         style="fill:#ffffff;fill-opacity:1;fill-rule:nonzero;stroke:none"
         id="path18" />
      <path
         d="m 1666.72,276.328 c 3.7,0 7.1,0.313 10.21,0.942 3.1,0.628 5.78,1.589 8.01,2.878 2.23,1.293 3.98,2.954 5.23,4.973 1.26,2.02 1.89,4.43 1.89,7.231 0,5.089 -1.99,9.027 -5.97,11.82 -3.98,2.789 -10.43,4.187 -19.37,4.187 -3.56,0 -6.87,-0.3 -9.94,-0.89 -3.07,-0.59 -5.76,-1.52 -8.06,-2.77 -2.31,-1.258 -4.1,-2.898 -5.39,-4.918 -1.3,-2.031 -1.94,-4.5 -1.94,-7.429 0,-5.102 2.04,-9.043 6.12,-11.84 4.08,-2.793 10.49,-4.184 19.21,-4.184 z m 0,-15.078 c -12.21,0 -21.61,2.691 -28.21,8.059 -6.6,5.382 -9.89,13.05 -9.89,23.043 0,5.226 0.9,9.796 2.72,13.707 1.82,3.902 4.39,7.152 7.74,9.742 3.35,2.578 7.37,4.5 12.04,5.75 4.68,1.258 9.88,1.89 15.6,1.89 12.22,0 21.62,-2.711 28.21,-8.121 6.6,-5.398 9.9,-13.07 9.9,-22.968 0,-5.313 -0.91,-9.922 -2.72,-13.821 -1.82,-3.91 -4.4,-7.14 -7.75,-9.691 -3.35,-2.551 -7.37,-4.449 -12.04,-5.699 -4.67,-1.262 -9.88,-1.891 -15.6,-1.891"
         style="fill:#ffffff;fill-opacity:1;fill-rule:nonzero;stroke:none"
         id="path20" />
      <path
         d="m 0,321.691 h 259.02 v -53.16 H 163.793 V 1.80859 H 95.2227 V 268.531 H 0 v 53.16"
         style="fill:#ffffff;fill-opacity:1;fill-rule:nonzero;stroke:none"
         id="path22" />
      <path
         d="m 655.73,321.691 h 229.375 v -53.16 H 724.375 V 193.328 H 872.277 V 140.199 H 724.375 V 54.9688 H 889.938 V 1.80859 H 655.73 V 321.691"
         style="fill:#ffffff;fill-opacity:1;fill-rule:nonzero;stroke:none"
         id="path24" />
      <path
         d="M 1142.41,1.80859 1024.95,214.52 l -0.88,-0.961 V 1.80859 H 959.887 V 321.691 h 85.013 l 116.79,-209.031 0.88,0.891 v 208.14 h 64.18 V 1.80859 h -84.34"
         style="fill:#ffffff;fill-opacity:1;fill-rule:nonzero;stroke:none"
         id="path26" />
      <path
         d="m 1403.79,55 h -35.54 v 211 h 35.54 c 81.43,0.91 93.42,-53.301 93.42,-104.25 0,-50.969 -11.99,-107.7305 -93.42,-106.75 z m 4.72,266.629 H 1299.65 V 1.83984 h 108.86 c 99.75,-0.910152 161.74,48.73046 161.74,159.91016 0,111.191 -61.99,160.828 -161.74,159.879"
         style="fill:#ffffff;fill-opacity:1;fill-rule:nonzero;stroke:none"
         id="path28" />
      <path
         d="m 1761.76,319.262 h -11.68 V 288.25 h -4.63 v 31.012 h -11.57 v 4.148 h 27.88 v -4.148"
         style="fill:#ffffff;fill-opacity:1;fill-rule:nonzero;stroke:none"
         id="path30" />
      <path
         d="m 1800,288.25 h -4.42 v 29.43 l -10.23,-29.43 h -4.18 l -10.04,29.93 -0.11,-29.93 h -4.49 v 35.191 h 6.96 l 8.29,-24.902 c 0.07,-0.09 0.36,-1.027 0.94,-2.918 0.39,-1.101 0.63,-1.859 0.7,-2.293 l 2,5.641 8.38,24.472 h 6.2 V 288.25"
         style="fill:#ffffff;fill-opacity:1;fill-rule:nonzero;stroke:none"
         id="path32" />
      <path
         d="m 380.992,266.91 h 81.063 c 27.187,-0.39 44.277,-10.191 47.25,-32.98 0,-0.141 0.023,-0.27 0.047,-0.391 0.089,-0.789 0.136,-1.559 0.179,-2.328 0.071,-0.801 0.09,-1.59 0.137,-2.359 0.023,-0.461 0.047,-0.961 0.047,-1.411 0.023,-0.57 0.047,-1.14 0.023,-1.703 C 509.465,197.98 491.809,183.23 462.055,182.82 H 380.992 Z M 521.266,136.68 c 35.609,13.082 61.047,47.57 61.047,88.082 0,4.84 -0.364,9.558 -1.067,14.187 -4.43,29.602 -20.285,52.242 -46.894,67.789 -3.743,1.992 -23.239,14.422 -82.692,14.422 h -0.066 c -1.156,-0.019 -2.293,0.051 -3.426,0.012 H 312.41 V 1.30859 h 68.606 V 128.289 h 72.531 c 0,0 44.844,-98.539 50.605,-126.98041 h 84.426 L 521.266,136.68"
         style="fill:#ffffff;fill-opacity:1;fill-rule:nonzero;stroke:none"
         id="path34" />
      <path
         d="m 1570.02,1225.01 c 0,-388.772 -315.16,-703.932 -703.93,-703.932 -388.77,0 -703.93,315.16 -703.93,703.932 0,388.77 315.16,703.93 703.93,703.93 388.77,0 703.93,-315.16 703.93,-703.93"
         style="fill:#d91920;fill-opacity:1;fill-rule:nonzero;stroke:none"
         id="path36" />
      <path
         d="M 556.004,1228.39 C 453.887,1028.41 467.395,964.906 485.012,915.379 c 47.41,-133.258 303.613,-95.891 556.038,101.311 252.42,197.22 368,471.02 258.17,611.6 -95.56,122.28 -333.529,100.58 -558.064,-36.21 280.264,179.35 575.094,212.58 689.634,66.02 128.75,-164.72 -17.71,-494.24 -327.13,-735.959 C 794.246,680.391 439.059,617.98 310.324,782.711 229.352,886.32 248.969,1054.38 357.805,1225.52 h -82.301 l 19.465,45.44 c 0,0 147.57,29.75 296.312,164.85 0.328,0.3 59.836,0.42 59.836,0.42 l -74.144,-160.15 h 121.683 l -23.062,-48.27 -119.59,0.58"
         style="fill:#ffffff;fill-opacity:1;fill-rule:nonzero;stroke:none"
         id="path38" />
    </g>
  </g>
</svg>
